<svg xmlns="http://www.w3.org/2000/svg" xmlns:xlink="http://www.w3.org/1999/xlink" version="1.1" viewBox="112.96 51.33 474.08 474.08">
	<path d="m350 525.41c-130.7 0-237.04-106.34-237.04-237.04 0-130.7 106.34-237.04 237.04-237.04s237.04 106.34 237.04 237.04c0 130.7-106.34 237.04-237.04 237.04zm0-465.68c-126.07 0-228.64 102.56-228.64 228.64 0 126.08 102.57 228.64 228.64 228.64s228.64-102.56 228.64-228.64c0-126.08-102.57-228.64-228.64-228.64zm92.316 102.88h-8.3984v251.53h8.3984zm-51.039 125.76-126.43-126.43-5.9375 5.9492 120.48 120.48-120.48 120.49 5.9375 5.9492z"/>
</svg>